# xmcd
#
# Track frame offsets:
#	150
#	14227
#	35304
#	51936
#	64982
#	88082
#	105827
#	125212
#	142954
#	156349
#	172344
#	189977
#	201972
#
# Disc length: 2970 seconds
# Revision: 2
# Processed by: cddbd v1.5.2PL0 Copyright (c) Steve Scherf et al.
# Submitted via: dBpowerAMP V12.0
#
DISCID=c00b980d
DTITLE=Graham Rodger - Thunderbolt
DYEAR=2008
DGENRE=Country
TTITLE0=01 - the Stockyards in the Hills
TTITLE1=02 - Thunderbolt
TTITLE2=03 - Kenny, Me and Slim
TTITLE3=04 - Anywhere I Hang My Hat
TTITLE4=05 - Woman on the Land
TTITLE5=06 - an Old Green Piece of Canvas
TTITLE6=07 - My Heart's in Australia Now
TTITLE7=08 - Sequel to the Old Landcruiser
TTITLE8=09 - the Chinchilla Rodeo
TTITLE9=Salute to R. M.
TTITLE10=11 - One Country
TTITLE11=12 - There's a Hole in the Mozzie Net
TTITLE12=13 - the Obi Obi
EXTD=
EXTT0=
EXTT1=
EXTT2=
EXTT3=
EXTT4=
EXTT5=
EXTT6=
EXTT7=
EXTT8=
EXTT9=
EXTT10=
EXTT11=
EXTT12=
PLAYORDER=
